<mxfile host="app.diagrams.net" modified="2023-12-30T08:29:40.471Z" agent="Mozilla/5.0 (Windows NT 10.0; Win64; x64) AppleWebKit/537.36 (KHTML, like Gecko) Chrome/120.0.0.0 Safari/537.36 Edg/120.0.0.0" etag="Iq5atvNQtmD178h6D1S5" version="22.1.16" type="github">
  <diagram name="Page-1" id="1Co5AFttE1sdkpLuGWpp">
    <mxGraphModel dx="691" dy="426" grid="1" gridSize="10" guides="1" tooltips="1" connect="1" arrows="1" fold="1" page="1" pageScale="1" pageWidth="850" pageHeight="1100" math="0" shadow="0">
      <root>
        <mxCell id="0" />
        <mxCell id="1" parent="0" />
        <mxCell id="Yl7VU8M9X4uE9OL1-MA8-65" value="" style="rounded=0;whiteSpace=wrap;html=1;" vertex="1" parent="1">
          <mxGeometry x="70" y="70" width="140" height="60" as="geometry" />
        </mxCell>
        <mxCell id="Yl7VU8M9X4uE9OL1-MA8-66" value="" style="sketch=0;pointerEvents=1;shadow=0;dashed=0;html=1;strokeColor=none;fillColor=#434445;aspect=fixed;labelPosition=center;verticalLabelPosition=bottom;verticalAlign=top;align=center;outlineConnect=0;shape=mxgraph.vvd.ethernet_port;" vertex="1" parent="1">
          <mxGeometry x="80" y="100" width="20" height="20" as="geometry" />
        </mxCell>
        <mxCell id="Yl7VU8M9X4uE9OL1-MA8-90" value="" style="rounded=1;whiteSpace=wrap;html=1;" vertex="1" parent="1">
          <mxGeometry x="265" y="120" width="430" height="160" as="geometry" />
        </mxCell>
        <mxCell id="Yl7VU8M9X4uE9OL1-MA8-67" value="" style="sketch=0;pointerEvents=1;shadow=0;dashed=0;html=1;strokeColor=none;fillColor=#434445;aspect=fixed;labelPosition=center;verticalLabelPosition=bottom;verticalAlign=top;align=center;outlineConnect=0;shape=mxgraph.vvd.ethernet_port;" vertex="1" parent="1">
          <mxGeometry x="110" y="100" width="20" height="20" as="geometry" />
        </mxCell>
        <mxCell id="Yl7VU8M9X4uE9OL1-MA8-68" value="&lt;b&gt;1N&lt;/b&gt;" style="text;html=1;strokeColor=none;fillColor=none;align=center;verticalAlign=middle;whiteSpace=wrap;rounded=0;" vertex="1" parent="1">
          <mxGeometry x="160" y="70" width="60" height="30" as="geometry" />
        </mxCell>
        <mxCell id="Yl7VU8M9X4uE9OL1-MA8-69" value="" style="verticalLabelPosition=bottom;verticalAlign=top;html=1;shape=mxgraph.basic.rounded_frame;dx=10;whiteSpace=wrap;" vertex="1" parent="1">
          <mxGeometry x="625" y="240" width="20" height="15" as="geometry" />
        </mxCell>
        <mxCell id="Yl7VU8M9X4uE9OL1-MA8-76" value="" style="verticalLabelPosition=bottom;verticalAlign=top;html=1;shape=mxgraph.basic.rounded_frame;dx=10;whiteSpace=wrap;" vertex="1" parent="1">
          <mxGeometry x="590" y="240" width="20" height="15" as="geometry" />
        </mxCell>
        <mxCell id="Yl7VU8M9X4uE9OL1-MA8-77" value="" style="verticalLabelPosition=bottom;verticalAlign=top;html=1;shape=mxgraph.basic.rounded_frame;dx=10;whiteSpace=wrap;" vertex="1" parent="1">
          <mxGeometry x="550" y="240" width="20" height="15" as="geometry" />
        </mxCell>
        <mxCell id="Yl7VU8M9X4uE9OL1-MA8-78" value="" style="verticalLabelPosition=bottom;verticalAlign=top;html=1;shape=mxgraph.basic.rounded_frame;dx=10;whiteSpace=wrap;" vertex="1" parent="1">
          <mxGeometry x="625" y="210" width="20" height="15" as="geometry" />
        </mxCell>
        <mxCell id="Yl7VU8M9X4uE9OL1-MA8-79" value="" style="verticalLabelPosition=bottom;verticalAlign=top;html=1;shape=mxgraph.basic.rounded_frame;dx=10;whiteSpace=wrap;" vertex="1" parent="1">
          <mxGeometry x="590" y="210" width="20" height="15" as="geometry" />
        </mxCell>
        <mxCell id="Yl7VU8M9X4uE9OL1-MA8-80" value="" style="verticalLabelPosition=bottom;verticalAlign=top;html=1;shape=mxgraph.basic.rounded_frame;dx=10;whiteSpace=wrap;" vertex="1" parent="1">
          <mxGeometry x="550" y="210" width="20" height="15" as="geometry" />
        </mxCell>
        <mxCell id="Yl7VU8M9X4uE9OL1-MA8-81" value="" style="verticalLabelPosition=bottom;verticalAlign=top;html=1;shape=mxgraph.basic.rounded_frame;dx=10;whiteSpace=wrap;" vertex="1" parent="1">
          <mxGeometry x="505" y="240" width="20" height="15" as="geometry" />
        </mxCell>
        <mxCell id="Yl7VU8M9X4uE9OL1-MA8-82" value="" style="verticalLabelPosition=bottom;verticalAlign=top;html=1;shape=mxgraph.basic.rounded_frame;dx=10;whiteSpace=wrap;" vertex="1" parent="1">
          <mxGeometry x="470" y="240" width="20" height="15" as="geometry" />
        </mxCell>
        <mxCell id="Yl7VU8M9X4uE9OL1-MA8-83" value="" style="verticalLabelPosition=bottom;verticalAlign=top;html=1;shape=mxgraph.basic.rounded_frame;dx=10;whiteSpace=wrap;" vertex="1" parent="1">
          <mxGeometry x="430" y="240" width="20" height="15" as="geometry" />
        </mxCell>
        <mxCell id="Yl7VU8M9X4uE9OL1-MA8-87" value="" style="verticalLabelPosition=bottom;verticalAlign=top;html=1;shape=mxgraph.basic.rounded_frame;dx=10;whiteSpace=wrap;" vertex="1" parent="1">
          <mxGeometry x="385" y="240" width="20" height="15" as="geometry" />
        </mxCell>
        <mxCell id="Yl7VU8M9X4uE9OL1-MA8-88" value="" style="verticalLabelPosition=bottom;verticalAlign=top;html=1;shape=mxgraph.basic.rounded_frame;dx=10;whiteSpace=wrap;" vertex="1" parent="1">
          <mxGeometry x="350" y="240" width="20" height="15" as="geometry" />
        </mxCell>
        <mxCell id="Yl7VU8M9X4uE9OL1-MA8-89" value="" style="verticalLabelPosition=bottom;verticalAlign=top;html=1;shape=mxgraph.basic.rounded_frame;dx=10;whiteSpace=wrap;" vertex="1" parent="1">
          <mxGeometry x="310" y="240" width="20" height="15" as="geometry" />
        </mxCell>
        <mxCell id="Yl7VU8M9X4uE9OL1-MA8-118" value="P1" style="text;html=1;strokeColor=none;fillColor=none;align=center;verticalAlign=middle;whiteSpace=wrap;rounded=0;" vertex="1" parent="1">
          <mxGeometry x="300" y="212.5" width="40" height="12.5" as="geometry" />
        </mxCell>
        <mxCell id="Yl7VU8M9X4uE9OL1-MA8-119" value="P2" style="text;html=1;strokeColor=none;fillColor=none;align=center;verticalAlign=middle;whiteSpace=wrap;rounded=0;" vertex="1" parent="1">
          <mxGeometry x="340" y="212.5" width="40" height="12.5" as="geometry" />
        </mxCell>
        <mxCell id="Yl7VU8M9X4uE9OL1-MA8-120" value="P3" style="text;html=1;strokeColor=none;fillColor=none;align=center;verticalAlign=middle;whiteSpace=wrap;rounded=0;" vertex="1" parent="1">
          <mxGeometry x="375" y="210" width="40" height="17.5" as="geometry" />
        </mxCell>
        <mxCell id="Yl7VU8M9X4uE9OL1-MA8-121" value="&lt;b&gt;G1&lt;/b&gt;" style="text;html=1;strokeColor=none;fillColor=none;align=center;verticalAlign=middle;whiteSpace=wrap;rounded=0;" vertex="1" parent="1">
          <mxGeometry x="410" y="203.75" width="60" height="30" as="geometry" />
        </mxCell>
        <mxCell id="Yl7VU8M9X4uE9OL1-MA8-122" value="&lt;b&gt;G1&lt;/b&gt;" style="text;html=1;strokeColor=none;fillColor=none;align=center;verticalAlign=middle;whiteSpace=wrap;rounded=0;" vertex="1" parent="1">
          <mxGeometry x="410" y="203.75" width="60" height="30" as="geometry" />
        </mxCell>
        <mxCell id="Yl7VU8M9X4uE9OL1-MA8-123" value="&lt;b&gt;G2&lt;/b&gt;" style="text;html=1;strokeColor=none;fillColor=none;align=center;verticalAlign=middle;whiteSpace=wrap;rounded=0;" vertex="1" parent="1">
          <mxGeometry x="450" y="202.5" width="60" height="30" as="geometry" />
        </mxCell>
        <mxCell id="Yl7VU8M9X4uE9OL1-MA8-124" value="&lt;b&gt;G1&lt;/b&gt;" style="text;html=1;strokeColor=none;fillColor=none;align=center;verticalAlign=middle;whiteSpace=wrap;rounded=0;" vertex="1" parent="1">
          <mxGeometry x="485" y="202.5" width="60" height="30" as="geometry" />
        </mxCell>
        <mxCell id="Yl7VU8M9X4uE9OL1-MA8-126" value="" style="rounded=1;whiteSpace=wrap;html=1;" vertex="1" parent="1">
          <mxGeometry x="240" y="370" width="475" height="160" as="geometry" />
        </mxCell>
        <mxCell id="Yl7VU8M9X4uE9OL1-MA8-127" value="" style="verticalLabelPosition=bottom;verticalAlign=top;html=1;shape=mxgraph.basic.rounded_frame;dx=10;whiteSpace=wrap;" vertex="1" parent="1">
          <mxGeometry x="280" y="500" width="20" height="15" as="geometry" />
        </mxCell>
        <mxCell id="Yl7VU8M9X4uE9OL1-MA8-129" value="" style="verticalLabelPosition=bottom;verticalAlign=top;html=1;shape=mxgraph.basic.rounded_frame;dx=10;whiteSpace=wrap;" vertex="1" parent="1">
          <mxGeometry x="310" y="500" width="20" height="15" as="geometry" />
        </mxCell>
        <mxCell id="Yl7VU8M9X4uE9OL1-MA8-131" value="" style="verticalLabelPosition=bottom;verticalAlign=top;html=1;shape=mxgraph.basic.rounded_frame;dx=10;whiteSpace=wrap;" vertex="1" parent="1">
          <mxGeometry x="370" y="500" width="20" height="15" as="geometry" />
        </mxCell>
        <mxCell id="Yl7VU8M9X4uE9OL1-MA8-132" value="" style="verticalLabelPosition=bottom;verticalAlign=top;html=1;shape=mxgraph.basic.rounded_frame;dx=10;whiteSpace=wrap;" vertex="1" parent="1">
          <mxGeometry x="340" y="500" width="20" height="15" as="geometry" />
        </mxCell>
        <mxCell id="Yl7VU8M9X4uE9OL1-MA8-133" value="" style="verticalLabelPosition=bottom;verticalAlign=top;html=1;shape=mxgraph.basic.rounded_frame;dx=10;whiteSpace=wrap;" vertex="1" parent="1">
          <mxGeometry x="410" y="500" width="20" height="15" as="geometry" />
        </mxCell>
        <mxCell id="Yl7VU8M9X4uE9OL1-MA8-134" value="" style="verticalLabelPosition=bottom;verticalAlign=top;html=1;shape=mxgraph.basic.rounded_frame;dx=10;whiteSpace=wrap;" vertex="1" parent="1">
          <mxGeometry x="440" y="500" width="20" height="15" as="geometry" />
        </mxCell>
        <mxCell id="Yl7VU8M9X4uE9OL1-MA8-135" value="" style="verticalLabelPosition=bottom;verticalAlign=top;html=1;shape=mxgraph.basic.rounded_frame;dx=10;whiteSpace=wrap;" vertex="1" parent="1">
          <mxGeometry x="470" y="500" width="20" height="15" as="geometry" />
        </mxCell>
        <mxCell id="Yl7VU8M9X4uE9OL1-MA8-137" value="" style="verticalLabelPosition=bottom;verticalAlign=top;html=1;shape=mxgraph.basic.rounded_frame;dx=10;whiteSpace=wrap;" vertex="1" parent="1">
          <mxGeometry x="500" y="500" width="20" height="15" as="geometry" />
        </mxCell>
        <mxCell id="Yl7VU8M9X4uE9OL1-MA8-139" value="" style="verticalLabelPosition=bottom;verticalAlign=top;html=1;shape=mxgraph.basic.rounded_frame;dx=10;whiteSpace=wrap;" vertex="1" parent="1">
          <mxGeometry x="545" y="500" width="20" height="15" as="geometry" />
        </mxCell>
        <mxCell id="Yl7VU8M9X4uE9OL1-MA8-140" value="" style="verticalLabelPosition=bottom;verticalAlign=top;html=1;shape=mxgraph.basic.rounded_frame;dx=10;whiteSpace=wrap;" vertex="1" parent="1">
          <mxGeometry x="570" y="500" width="20" height="15" as="geometry" />
        </mxCell>
        <mxCell id="Yl7VU8M9X4uE9OL1-MA8-141" value="" style="verticalLabelPosition=bottom;verticalAlign=top;html=1;shape=mxgraph.basic.rounded_frame;dx=10;whiteSpace=wrap;" vertex="1" parent="1">
          <mxGeometry x="600" y="500" width="20" height="15" as="geometry" />
        </mxCell>
        <mxCell id="Yl7VU8M9X4uE9OL1-MA8-142" value="" style="verticalLabelPosition=bottom;verticalAlign=top;html=1;shape=mxgraph.basic.rounded_frame;dx=10;whiteSpace=wrap;" vertex="1" parent="1">
          <mxGeometry x="630" y="500" width="20" height="15" as="geometry" />
        </mxCell>
        <mxCell id="Yl7VU8M9X4uE9OL1-MA8-144" value="&lt;b&gt;P1&lt;/b&gt;" style="text;html=1;strokeColor=none;fillColor=none;align=center;verticalAlign=middle;whiteSpace=wrap;rounded=0;" vertex="1" parent="1">
          <mxGeometry x="260" y="470" width="60" height="30" as="geometry" />
        </mxCell>
        <mxCell id="Yl7VU8M9X4uE9OL1-MA8-145" value="&lt;b&gt;P2&lt;/b&gt;" style="text;html=1;strokeColor=none;fillColor=none;align=center;verticalAlign=middle;whiteSpace=wrap;rounded=0;" vertex="1" parent="1">
          <mxGeometry x="290" y="470" width="60" height="30" as="geometry" />
        </mxCell>
        <mxCell id="Yl7VU8M9X4uE9OL1-MA8-146" value="&lt;b&gt;P3&lt;/b&gt;" style="text;html=1;strokeColor=none;fillColor=none;align=center;verticalAlign=middle;whiteSpace=wrap;rounded=0;" vertex="1" parent="1">
          <mxGeometry x="320" y="470" width="60" height="30" as="geometry" />
        </mxCell>
        <mxCell id="Yl7VU8M9X4uE9OL1-MA8-147" value="&lt;b&gt;P4&lt;/b&gt;" style="text;html=1;strokeColor=none;fillColor=none;align=center;verticalAlign=middle;whiteSpace=wrap;rounded=0;" vertex="1" parent="1">
          <mxGeometry x="350" y="470" width="60" height="30" as="geometry" />
        </mxCell>
        <mxCell id="Yl7VU8M9X4uE9OL1-MA8-148" value="&lt;b&gt;G1&lt;/b&gt;" style="text;html=1;strokeColor=none;fillColor=none;align=center;verticalAlign=middle;whiteSpace=wrap;rounded=0;" vertex="1" parent="1">
          <mxGeometry x="390" y="470" width="60" height="30" as="geometry" />
        </mxCell>
        <mxCell id="Yl7VU8M9X4uE9OL1-MA8-150" value="&lt;b&gt;G2&lt;/b&gt;" style="text;html=1;strokeColor=none;fillColor=none;align=center;verticalAlign=middle;whiteSpace=wrap;rounded=0;" vertex="1" parent="1">
          <mxGeometry x="420" y="470" width="60" height="30" as="geometry" />
        </mxCell>
        <mxCell id="Yl7VU8M9X4uE9OL1-MA8-151" value="&lt;b&gt;G3&lt;/b&gt;" style="text;html=1;strokeColor=none;fillColor=none;align=center;verticalAlign=middle;whiteSpace=wrap;rounded=0;" vertex="1" parent="1">
          <mxGeometry x="450" y="470" width="60" height="30" as="geometry" />
        </mxCell>
        <mxCell id="Yl7VU8M9X4uE9OL1-MA8-152" value="&lt;b&gt;G4&lt;/b&gt;" style="text;html=1;strokeColor=none;fillColor=none;align=center;verticalAlign=middle;whiteSpace=wrap;rounded=0;" vertex="1" parent="1">
          <mxGeometry x="480" y="470" width="60" height="30" as="geometry" />
        </mxCell>
        <mxCell id="Yl7VU8M9X4uE9OL1-MA8-153" value="&lt;b&gt;G5&lt;/b&gt;" style="text;html=1;strokeColor=none;fillColor=none;align=center;verticalAlign=middle;whiteSpace=wrap;rounded=0;" vertex="1" parent="1">
          <mxGeometry x="525" y="470" width="60" height="30" as="geometry" />
        </mxCell>
        <mxCell id="Yl7VU8M9X4uE9OL1-MA8-154" value="&lt;b&gt;G6&lt;/b&gt;" style="text;html=1;strokeColor=none;fillColor=none;align=center;verticalAlign=middle;whiteSpace=wrap;rounded=0;" vertex="1" parent="1">
          <mxGeometry x="550" y="470" width="60" height="30" as="geometry" />
        </mxCell>
        <mxCell id="Yl7VU8M9X4uE9OL1-MA8-155" value="&lt;b&gt;G7&lt;/b&gt;" style="text;html=1;strokeColor=none;fillColor=none;align=center;verticalAlign=middle;whiteSpace=wrap;rounded=0;" vertex="1" parent="1">
          <mxGeometry x="580" y="470" width="60" height="30" as="geometry" />
        </mxCell>
        <mxCell id="Yl7VU8M9X4uE9OL1-MA8-156" value="&lt;b&gt;G8&lt;/b&gt;" style="text;html=1;strokeColor=none;fillColor=none;align=center;verticalAlign=middle;whiteSpace=wrap;rounded=0;" vertex="1" parent="1">
          <mxGeometry x="610" y="470" width="60" height="30" as="geometry" />
        </mxCell>
        <mxCell id="Yl7VU8M9X4uE9OL1-MA8-157" value="&lt;i&gt;&lt;b&gt;&lt;u&gt;GPON PORT&lt;/u&gt;&lt;/b&gt;&lt;/i&gt;" style="text;html=1;strokeColor=none;fillColor=none;align=center;verticalAlign=middle;whiteSpace=wrap;rounded=0;" vertex="1" parent="1">
          <mxGeometry x="415" y="435" width="85" height="25" as="geometry" />
        </mxCell>
        <mxCell id="Yl7VU8M9X4uE9OL1-MA8-158" value="&lt;b&gt;&lt;i&gt;&lt;u&gt;ETHERNET PORT&lt;/u&gt;&lt;/i&gt;&lt;/b&gt;" style="text;html=1;strokeColor=none;fillColor=none;align=center;verticalAlign=middle;whiteSpace=wrap;rounded=0;" vertex="1" parent="1">
          <mxGeometry x="545" y="432.5" width="105" height="30" as="geometry" />
        </mxCell>
        <mxCell id="Yl7VU8M9X4uE9OL1-MA8-159" value="&lt;b&gt;&lt;i&gt;&lt;u&gt;PON&lt;/u&gt;&lt;/i&gt;&lt;/b&gt;" style="text;html=1;strokeColor=none;fillColor=none;align=center;verticalAlign=middle;whiteSpace=wrap;rounded=0;" vertex="1" parent="1">
          <mxGeometry x="280" y="435" width="60" height="30" as="geometry" />
        </mxCell>
        <mxCell id="Yl7VU8M9X4uE9OL1-MA8-160" value="" style="rounded=1;whiteSpace=wrap;html=1;" vertex="1" parent="1">
          <mxGeometry x="240" y="620" width="475" height="160" as="geometry" />
        </mxCell>
        <mxCell id="Yl7VU8M9X4uE9OL1-MA8-161" value="" style="verticalLabelPosition=bottom;verticalAlign=top;html=1;shape=mxgraph.basic.rounded_frame;dx=10;whiteSpace=wrap;" vertex="1" parent="1">
          <mxGeometry x="280" y="750" width="20" height="15" as="geometry" />
        </mxCell>
        <mxCell id="Yl7VU8M9X4uE9OL1-MA8-162" value="" style="verticalLabelPosition=bottom;verticalAlign=top;html=1;shape=mxgraph.basic.rounded_frame;dx=10;whiteSpace=wrap;" vertex="1" parent="1">
          <mxGeometry x="310" y="750" width="20" height="15" as="geometry" />
        </mxCell>
        <mxCell id="Yl7VU8M9X4uE9OL1-MA8-163" value="" style="verticalLabelPosition=bottom;verticalAlign=top;html=1;shape=mxgraph.basic.rounded_frame;dx=10;whiteSpace=wrap;" vertex="1" parent="1">
          <mxGeometry x="370" y="750" width="20" height="15" as="geometry" />
        </mxCell>
        <mxCell id="Yl7VU8M9X4uE9OL1-MA8-164" value="" style="verticalLabelPosition=bottom;verticalAlign=top;html=1;shape=mxgraph.basic.rounded_frame;dx=10;whiteSpace=wrap;" vertex="1" parent="1">
          <mxGeometry x="340" y="750" width="20" height="15" as="geometry" />
        </mxCell>
        <mxCell id="Yl7VU8M9X4uE9OL1-MA8-165" value="" style="verticalLabelPosition=bottom;verticalAlign=top;html=1;shape=mxgraph.basic.rounded_frame;dx=10;whiteSpace=wrap;" vertex="1" parent="1">
          <mxGeometry x="410" y="750" width="20" height="15" as="geometry" />
        </mxCell>
        <mxCell id="Yl7VU8M9X4uE9OL1-MA8-166" value="" style="verticalLabelPosition=bottom;verticalAlign=top;html=1;shape=mxgraph.basic.rounded_frame;dx=10;whiteSpace=wrap;" vertex="1" parent="1">
          <mxGeometry x="440" y="750" width="20" height="15" as="geometry" />
        </mxCell>
        <mxCell id="Yl7VU8M9X4uE9OL1-MA8-167" value="" style="verticalLabelPosition=bottom;verticalAlign=top;html=1;shape=mxgraph.basic.rounded_frame;dx=10;whiteSpace=wrap;" vertex="1" parent="1">
          <mxGeometry x="470" y="750" width="20" height="15" as="geometry" />
        </mxCell>
        <mxCell id="Yl7VU8M9X4uE9OL1-MA8-168" value="" style="verticalLabelPosition=bottom;verticalAlign=top;html=1;shape=mxgraph.basic.rounded_frame;dx=10;whiteSpace=wrap;" vertex="1" parent="1">
          <mxGeometry x="500" y="750" width="20" height="15" as="geometry" />
        </mxCell>
        <mxCell id="Yl7VU8M9X4uE9OL1-MA8-169" value="" style="verticalLabelPosition=bottom;verticalAlign=top;html=1;shape=mxgraph.basic.rounded_frame;dx=10;whiteSpace=wrap;" vertex="1" parent="1">
          <mxGeometry x="545" y="750" width="20" height="15" as="geometry" />
        </mxCell>
        <mxCell id="Yl7VU8M9X4uE9OL1-MA8-170" value="" style="verticalLabelPosition=bottom;verticalAlign=top;html=1;shape=mxgraph.basic.rounded_frame;dx=10;whiteSpace=wrap;" vertex="1" parent="1">
          <mxGeometry x="570" y="750" width="20" height="15" as="geometry" />
        </mxCell>
        <mxCell id="Yl7VU8M9X4uE9OL1-MA8-171" value="" style="verticalLabelPosition=bottom;verticalAlign=top;html=1;shape=mxgraph.basic.rounded_frame;dx=10;whiteSpace=wrap;" vertex="1" parent="1">
          <mxGeometry x="600" y="750" width="20" height="15" as="geometry" />
        </mxCell>
        <mxCell id="Yl7VU8M9X4uE9OL1-MA8-172" value="" style="verticalLabelPosition=bottom;verticalAlign=top;html=1;shape=mxgraph.basic.rounded_frame;dx=10;whiteSpace=wrap;" vertex="1" parent="1">
          <mxGeometry x="630" y="750" width="20" height="15" as="geometry" />
        </mxCell>
        <mxCell id="Yl7VU8M9X4uE9OL1-MA8-173" value="&lt;b&gt;P1&lt;/b&gt;" style="text;html=1;strokeColor=none;fillColor=none;align=center;verticalAlign=middle;whiteSpace=wrap;rounded=0;" vertex="1" parent="1">
          <mxGeometry x="260" y="720" width="60" height="30" as="geometry" />
        </mxCell>
        <mxCell id="Yl7VU8M9X4uE9OL1-MA8-174" value="&lt;b&gt;P2&lt;/b&gt;" style="text;html=1;strokeColor=none;fillColor=none;align=center;verticalAlign=middle;whiteSpace=wrap;rounded=0;" vertex="1" parent="1">
          <mxGeometry x="290" y="720" width="60" height="30" as="geometry" />
        </mxCell>
        <mxCell id="Yl7VU8M9X4uE9OL1-MA8-175" value="&lt;b&gt;P3&lt;/b&gt;" style="text;html=1;strokeColor=none;fillColor=none;align=center;verticalAlign=middle;whiteSpace=wrap;rounded=0;" vertex="1" parent="1">
          <mxGeometry x="320" y="720" width="60" height="30" as="geometry" />
        </mxCell>
        <mxCell id="Yl7VU8M9X4uE9OL1-MA8-176" value="&lt;b&gt;P4&lt;/b&gt;" style="text;html=1;strokeColor=none;fillColor=none;align=center;verticalAlign=middle;whiteSpace=wrap;rounded=0;" vertex="1" parent="1">
          <mxGeometry x="350" y="720" width="60" height="30" as="geometry" />
        </mxCell>
        <mxCell id="Yl7VU8M9X4uE9OL1-MA8-177" value="&lt;b&gt;G1&lt;/b&gt;" style="text;html=1;strokeColor=none;fillColor=none;align=center;verticalAlign=middle;whiteSpace=wrap;rounded=0;" vertex="1" parent="1">
          <mxGeometry x="390" y="720" width="60" height="30" as="geometry" />
        </mxCell>
        <mxCell id="Yl7VU8M9X4uE9OL1-MA8-178" value="&lt;b&gt;G2&lt;/b&gt;" style="text;html=1;strokeColor=none;fillColor=none;align=center;verticalAlign=middle;whiteSpace=wrap;rounded=0;" vertex="1" parent="1">
          <mxGeometry x="420" y="720" width="60" height="30" as="geometry" />
        </mxCell>
        <mxCell id="Yl7VU8M9X4uE9OL1-MA8-179" value="&lt;b&gt;G3&lt;/b&gt;" style="text;html=1;strokeColor=none;fillColor=none;align=center;verticalAlign=middle;whiteSpace=wrap;rounded=0;" vertex="1" parent="1">
          <mxGeometry x="450" y="720" width="60" height="30" as="geometry" />
        </mxCell>
        <mxCell id="Yl7VU8M9X4uE9OL1-MA8-180" value="&lt;b&gt;G4&lt;/b&gt;" style="text;html=1;strokeColor=none;fillColor=none;align=center;verticalAlign=middle;whiteSpace=wrap;rounded=0;" vertex="1" parent="1">
          <mxGeometry x="480" y="720" width="60" height="30" as="geometry" />
        </mxCell>
        <mxCell id="Yl7VU8M9X4uE9OL1-MA8-181" value="&lt;b&gt;G5&lt;/b&gt;" style="text;html=1;strokeColor=none;fillColor=none;align=center;verticalAlign=middle;whiteSpace=wrap;rounded=0;" vertex="1" parent="1">
          <mxGeometry x="525" y="720" width="60" height="30" as="geometry" />
        </mxCell>
        <mxCell id="Yl7VU8M9X4uE9OL1-MA8-182" value="&lt;b&gt;G6&lt;/b&gt;" style="text;html=1;strokeColor=none;fillColor=none;align=center;verticalAlign=middle;whiteSpace=wrap;rounded=0;" vertex="1" parent="1">
          <mxGeometry x="550" y="720" width="60" height="30" as="geometry" />
        </mxCell>
        <mxCell id="Yl7VU8M9X4uE9OL1-MA8-183" value="&lt;b&gt;G7&lt;/b&gt;" style="text;html=1;strokeColor=none;fillColor=none;align=center;verticalAlign=middle;whiteSpace=wrap;rounded=0;" vertex="1" parent="1">
          <mxGeometry x="580" y="720" width="60" height="30" as="geometry" />
        </mxCell>
        <mxCell id="Yl7VU8M9X4uE9OL1-MA8-184" value="&lt;b&gt;G8&lt;/b&gt;" style="text;html=1;strokeColor=none;fillColor=none;align=center;verticalAlign=middle;whiteSpace=wrap;rounded=0;" vertex="1" parent="1">
          <mxGeometry x="610" y="720" width="60" height="30" as="geometry" />
        </mxCell>
        <mxCell id="Yl7VU8M9X4uE9OL1-MA8-185" value="&lt;i&gt;&lt;b&gt;&lt;u&gt;GPON PORT&lt;/u&gt;&lt;/b&gt;&lt;/i&gt;" style="text;html=1;strokeColor=none;fillColor=none;align=center;verticalAlign=middle;whiteSpace=wrap;rounded=0;" vertex="1" parent="1">
          <mxGeometry x="415" y="685" width="85" height="25" as="geometry" />
        </mxCell>
        <mxCell id="Yl7VU8M9X4uE9OL1-MA8-186" value="&lt;b&gt;&lt;i&gt;&lt;u&gt;ETHERNET PORT&lt;/u&gt;&lt;/i&gt;&lt;/b&gt;" style="text;html=1;strokeColor=none;fillColor=none;align=center;verticalAlign=middle;whiteSpace=wrap;rounded=0;" vertex="1" parent="1">
          <mxGeometry x="545" y="682.5" width="105" height="30" as="geometry" />
        </mxCell>
        <mxCell id="Yl7VU8M9X4uE9OL1-MA8-187" value="&lt;b&gt;&lt;i&gt;&lt;u&gt;PON&lt;/u&gt;&lt;/i&gt;&lt;/b&gt;" style="text;html=1;strokeColor=none;fillColor=none;align=center;verticalAlign=middle;whiteSpace=wrap;rounded=0;" vertex="1" parent="1">
          <mxGeometry x="280" y="685" width="60" height="30" as="geometry" />
        </mxCell>
      </root>
    </mxGraphModel>
  </diagram>
</mxfile>
